<svg width="148" height="35" viewBox="0 0 148 35" fill="none" xmlns="http://www.w3.org/2000/svg">
<path d="M19.5071 0C19.7648 0 20.0112 0.049198 20.2377 0.138854C22.5085 0.593008 24.6582 1.50257 26.555 2.8138C28.5741 4.2096 30.2585 6.02735 31.4922 8.14182C32.7259 10.2562 33.4794 12.6169 33.7009 15.0614C33.9101 17.3709 33.6396 19.7033 32.9078 21.9147C32.7087 22.8534 31.9054 23.5555 30.945 23.5555C29.8348 23.5555 28.9348 22.6175 28.9348 21.4604C28.9348 21.3047 28.9512 21.1529 28.982 21.0069L28.9803 21.0063C29.0295 20.8408 29.076 20.6737 29.1192 20.5054C29.6487 18.8609 29.844 17.1323 29.6915 15.4207C29.5246 13.5467 28.945 11.7384 27.9934 10.1228C27.0417 8.50722 25.7411 7.12345 24.1827 6.0684C23.7275 5.76026 23.2535 5.48237 22.7639 5.23596C21.5124 4.55681 20.1385 4.0958 18.6866 3.8999C17.9854 3.58164 17.4968 2.8679 17.4968 2.03845C17.4968 0.912651 18.3968 0 19.5071 0Z" fill="url(#paint0_linear_204_1326)"/>
<path d="M13.533 4.32007C14.2034 3.98044 14.6656 3.26381 14.6656 2.43467C14.6656 1.2776 13.7656 0.3396 12.6553 0.3396C12.5732 0.3396 12.4924 0.344723 12.4128 0.35469L12.409 0.34093C12.3719 0.351375 12.3348 0.361944 12.2978 0.372648C12.1587 0.398681 12.0245 0.439638 11.8969 0.493866C9.62062 1.21333 7.51769 2.41333 5.72727 4.01734C3.8033 5.74094 2.29049 7.88596 1.3032 10.2903C0.3159 12.6946 -0.120035 15.2952 0.0283184 17.8956C0.176682 20.496 0.905458 23.0282 2.15958 25.3007C3.41369 27.5732 5.16036 29.5267 7.26744 31.0134C9.37463 32.5 11.7871 33.4811 14.3227 33.8822C16.8582 34.2835 19.4504 34.0944 21.9034 33.3294C24.2516 32.5969 26.4134 31.355 28.2396 29.6911C28.8568 29.3335 29.2744 28.6469 29.2744 27.8587C29.2744 26.7016 28.3744 25.7637 27.2643 25.7637C26.8379 25.7637 26.4425 25.902 26.1172 26.138C23.8485 28.6634 20.6475 30.237 17.1003 30.237C15.1608 30.237 13.3248 29.7665 11.6881 28.9273C10.9673 28.5989 10.2755 28.2025 9.62197 27.7418C8.01549 26.6094 6.68317 25.1186 5.72612 23.3826C4.76908 21.6465 4.21256 19.7108 4.09876 17.7226C3.98496 15.7344 4.3169 13.7459 5.06932 11.908C5.82173 10.0702 6.97499 8.43136 8.44138 7.11597C9.73857 5.95243 11.2507 5.06896 12.8862 4.51608C13.103 4.4903 13.3095 4.42836 13.4999 4.33639L13.5044 4.35291C13.5158 4.34917 13.5274 4.34553 13.5388 4.3419L13.533 4.32007Z" fill="url(#paint1_linear_204_1326)"/>
<path fill-rule="evenodd" clip-rule="evenodd" d="M22.4581 18.6583C23.9209 17.8066 23.9209 15.6933 22.4581 14.8415L14.0216 9.92946C12.5494 9.07228 10.7022 10.1343 10.7022 11.8378V21.662C10.7022 23.3655 12.5494 24.4276 14.0216 23.5704L22.4581 18.6583ZM18.3558 16.8392C18.4665 16.7735 18.4665 16.6132 18.3558 16.5473L14.6961 14.3697C14.5828 14.3023 14.4393 14.3839 14.4393 14.5157V18.871C14.4393 19.0028 14.5828 19.0843 14.6961 19.0169L18.3558 16.8392Z" fill="url(#paint2_linear_204_1326)"/>
<path d="M42.4161 20.8054V18.3424H46.2509V20.7431C46.2509 21.8447 46.5315 22.6345 47.0927 23.1126C47.6747 23.5906 48.4749 23.8297 49.4934 23.8297C50.1585 23.8297 50.7197 23.7673 51.177 23.6426C51.6342 23.5179 51.9772 23.3828 52.2058 23.2373V18.3424H56.0407V23.5491C56.0407 24.0271 55.9575 24.4324 55.7913 24.765C55.6458 25.0768 55.3548 25.3678 54.9183 25.638C54.3155 25.9913 53.5465 26.2823 52.6111 26.5109C51.6966 26.7604 50.647 26.8851 49.4622 26.8851C48.028 26.8851 46.7809 26.6772 45.7209 26.2615C44.6609 25.8458 43.8399 25.1911 43.2579 24.2973C42.6967 23.3828 42.4161 22.2188 42.4161 20.8054ZM56.0407 19.8389H52.2058V11.7328C52.3721 11.6912 52.6111 11.6496 52.9229 11.6081C53.2555 11.5457 53.5984 11.5145 53.9518 11.5145C54.6793 11.5145 55.2093 11.6392 55.5418 11.8887C55.8744 12.1381 56.0407 12.6057 56.0407 13.2916V19.8389ZM46.2509 19.8389H42.4161V11.7328C42.5824 11.6912 42.8214 11.6496 43.1332 11.6081C43.4449 11.5457 43.7879 11.5145 44.162 11.5145C44.8895 11.5145 45.4195 11.6392 45.7521 11.8887C46.0846 12.1381 46.2509 12.6057 46.2509 13.2916V19.8389ZM72.7341 16.8147V19.8389H68.8992V16.9706C68.8992 16.0561 68.6394 15.3909 68.1198 14.9752C67.6002 14.5387 66.9039 14.3205 66.0309 14.3205C65.3866 14.3205 64.8046 14.4036 64.285 14.5699C63.7861 14.7154 63.3392 14.8921 62.9443 15.0999V19.8389H59.1095V14.8505C59.1095 14.3517 59.2134 13.9464 59.4213 13.6346C59.6291 13.302 59.9409 13.0007 60.3566 12.7304C60.9801 12.3147 61.7804 11.9718 62.7573 11.7016C63.7549 11.4106 64.8566 11.2651 66.0621 11.2651C68.1614 11.2651 69.793 11.7328 70.957 12.6681C72.1417 13.6034 72.7341 14.9856 72.7341 16.8147ZM59.1095 18.3112H62.9443V26.3862C62.778 26.4486 62.539 26.5005 62.2272 26.5421C61.9155 26.6045 61.5725 26.6356 61.1984 26.6356C60.4917 26.6356 59.9617 26.5109 59.6083 26.2615C59.2758 25.9913 59.1095 25.5236 59.1095 24.8585V18.3112ZM68.8992 18.3112H72.7341V26.3862C72.5886 26.4486 72.3496 26.5005 72.017 26.5421C71.7052 26.6045 71.3727 26.6356 71.0193 26.6356C70.2918 26.6356 69.7514 26.5109 69.3981 26.2615C69.0655 25.9913 68.8992 25.5236 68.8992 24.8585V18.3112ZM87.2443 22.2708C87.2443 23.7257 86.7039 24.8689 85.6231 25.7003C84.5423 26.5109 82.973 26.9162 80.9153 26.9162C79.2525 26.9162 77.8911 26.6668 76.831 26.168C75.771 25.6691 75.241 25.004 75.241 24.1726C75.241 23.8193 75.3241 23.4971 75.4904 23.2061C75.6567 22.8943 75.8749 22.6553 76.1451 22.489C76.7271 22.8632 77.4026 23.1957 78.1717 23.4867C78.9407 23.7777 79.8137 23.9232 80.7906 23.9232C82.5573 23.9232 83.4407 23.3828 83.4407 22.302C83.4407 21.8447 83.2848 21.481 82.973 21.2107C82.6612 20.9198 82.1832 20.7119 81.5388 20.5872L79.7617 20.1195C78.2444 19.787 77.1116 19.2673 76.3634 18.5607C75.6359 17.854 75.2721 16.9082 75.2721 15.7235C75.2721 14.414 75.8126 13.3436 76.8934 12.5122C77.9742 11.66 79.4707 11.2339 81.383 11.2339C82.3806 11.2339 83.2744 11.3379 84.0642 11.5457C84.8541 11.7328 85.4672 12.0134 85.9037 12.3875C86.361 12.7616 86.5896 13.2085 86.5896 13.7281C86.5896 14.0815 86.5065 14.4036 86.3402 14.6946C86.1947 14.9648 85.9972 15.1727 85.7478 15.3182C85.4984 15.1727 85.1554 15.0168 84.719 14.8505C84.3033 14.6635 83.8252 14.518 83.2848 14.414C82.7444 14.2893 82.204 14.227 81.6636 14.227C80.8529 14.227 80.2086 14.3621 79.7305 14.6323C79.2733 14.8817 79.0446 15.2454 79.0446 15.7235C79.0446 16.0768 79.1797 16.3782 79.4499 16.6276C79.7201 16.8771 80.1774 17.0745 80.8218 17.22L82.4118 17.5941C84.0954 17.9891 85.3217 18.571 86.0908 19.3401C86.8598 20.0884 87.2443 21.0653 87.2443 22.2708ZM97.2409 14.3517C95.9938 14.3517 94.9442 14.757 94.092 15.5676C93.2606 16.3782 92.8449 17.563 92.8449 19.1219C92.8449 20.6599 93.2502 21.8239 94.0608 22.6137C94.8714 23.4036 95.9211 23.7985 97.2097 23.7985C97.9789 23.7985 98.6232 23.705 99.1428 23.5179C99.6833 23.31 100.151 23.0918 100.546 22.8632C100.858 23.0502 101.097 23.2789 101.263 23.5491C101.45 23.7985 101.544 24.1103 101.544 24.4844C101.544 25.1911 101.117 25.7731 100.265 26.2303C99.4131 26.6668 98.2907 26.8851 96.898 26.8851C95.3183 26.8851 93.9257 26.6045 92.7202 26.0433C91.5354 25.4613 90.6001 24.5883 89.9142 23.4244C89.2491 22.2604 88.9165 20.8262 88.9165 19.1219C88.9165 17.3551 89.2698 15.8898 89.9765 14.7258C90.704 13.5618 91.6601 12.6993 92.8449 12.1381C94.0504 11.5561 95.3703 11.2651 96.8044 11.2651C98.1763 11.2651 99.278 11.5041 100.109 11.9822C100.941 12.4602 101.356 13.0526 101.356 13.7593C101.356 14.0711 101.273 14.3621 101.107 14.6323C100.941 14.9025 100.743 15.1207 100.515 15.287C100.099 15.0376 99.6313 14.8193 99.1117 14.6323C98.592 14.4452 97.9685 14.3517 97.2409 14.3517ZM107.636 15.2247V19.496H103.801V14.9129C103.801 14.3933 103.925 13.9568 104.175 13.6034C104.424 13.2293 104.778 12.8863 105.235 12.5746C105.858 12.2004 106.648 11.8887 107.604 11.6392C108.561 11.3898 109.589 11.2651 110.691 11.2651C112.645 11.2651 113.622 11.8679 113.622 13.0734C113.622 13.3644 113.58 13.6346 113.497 13.884C113.414 14.1127 113.31 14.3205 113.185 14.5076C112.977 14.466 112.718 14.4348 112.406 14.414C112.094 14.3725 111.761 14.3517 111.408 14.3517C110.66 14.3517 109.953 14.4348 109.288 14.6011C108.644 14.7466 108.093 14.9544 107.636 15.2247ZM103.801 18.2177L107.636 18.4048V26.3862C107.469 26.4486 107.23 26.5005 106.919 26.5421C106.607 26.6045 106.264 26.6356 105.89 26.6356C105.183 26.6356 104.653 26.5109 104.3 26.2615C103.967 25.9913 103.801 25.5236 103.801 24.8585V18.2177ZM115.039 7.30555C115.039 6.70278 115.247 6.19355 115.663 5.77785C116.099 5.36215 116.64 5.1543 117.284 5.1543C117.949 5.1543 118.479 5.36215 118.874 5.77785C119.29 6.19355 119.498 6.70278 119.498 7.30555C119.498 7.88753 119.29 8.39676 118.874 8.83325C118.479 9.24895 117.949 9.4568 117.284 9.4568C116.64 9.4568 116.099 9.24895 115.663 8.83325C115.247 8.39676 115.039 7.88753 115.039 7.30555ZM115.351 18.2177H119.217V26.3862C119.051 26.4486 118.812 26.5005 118.5 26.5421C118.188 26.6045 117.845 26.6356 117.471 26.6356C116.764 26.6356 116.234 26.5109 115.881 26.2615C115.528 25.9913 115.351 25.5236 115.351 24.8585V18.2177ZM119.217 20.1819H115.351V11.8263C115.517 11.7639 115.756 11.712 116.068 11.6704C116.401 11.6081 116.754 11.5769 117.128 11.5769C117.856 11.5769 118.386 11.712 118.718 11.9822C119.051 12.2316 119.217 12.6993 119.217 13.3852V20.1819ZM129.374 26.8851C128.542 26.8851 127.784 26.7707 127.098 26.5421C126.433 26.3343 125.882 26.0952 125.445 25.825V22.5202C125.84 22.8528 126.308 23.1541 126.848 23.4244C127.409 23.6738 128.064 23.7985 128.812 23.7985C130.06 23.7985 131.047 23.414 131.774 22.6449C132.502 21.8551 132.866 20.6392 132.866 18.9971C132.866 17.854 132.689 16.9498 132.336 16.2847C132.003 15.5988 131.535 15.0999 130.933 14.7882C130.33 14.4764 129.654 14.3205 128.906 14.3205C128.324 14.3205 127.815 14.3933 127.378 14.5387C126.942 14.6635 126.568 14.8193 126.256 15.0064V24.8585H122.421V14.6323C122.421 14.1542 122.515 13.7593 122.702 13.4475C122.889 13.1358 123.201 12.8448 123.637 12.5746C124.24 12.2212 124.988 11.9198 125.882 11.6704C126.776 11.4002 127.784 11.2651 128.906 11.2651C130.423 11.2651 131.774 11.5353 132.959 12.0757C134.144 12.5953 135.069 13.4267 135.734 14.5699C136.42 15.7131 136.763 17.1888 136.763 18.9971C136.763 20.7431 136.441 22.198 135.796 23.362C135.173 24.526 134.3 25.4093 133.177 26.0121C132.076 26.5941 130.808 26.8851 129.374 26.8851ZM126.256 23.7985V32.0294C126.09 32.0917 125.851 32.1437 125.539 32.1853C125.227 32.2476 124.884 32.2788 124.51 32.2788C123.803 32.2788 123.273 32.1437 122.92 31.8735C122.587 31.6033 122.421 31.1356 122.421 30.4705V23.7673L126.256 23.7985ZM139.146 18.2177H142.981V21.8967C142.981 22.5826 143.178 23.071 143.573 23.362C143.989 23.653 144.571 23.7985 145.319 23.7985C145.651 23.7985 146.005 23.7569 146.379 23.6738C146.774 23.5906 147.106 23.4867 147.377 23.362C147.522 23.5283 147.657 23.7257 147.782 23.9544C147.907 24.183 147.969 24.4636 147.969 24.7962C147.969 25.3989 147.678 25.8978 147.096 26.2927C146.535 26.6876 145.651 26.8851 144.446 26.8851C142.804 26.8851 141.505 26.5213 140.549 25.7939C139.613 25.0456 139.146 23.8401 139.146 22.1773V18.2177ZM141.484 15.0376V12.0134H147.595C147.678 12.1589 147.761 12.3667 147.844 12.6369C147.948 12.9071 148 13.1877 148 13.4787C148 13.9983 147.875 14.3933 147.626 14.6635C147.377 14.9129 147.054 15.0376 146.66 15.0376H141.484ZM142.981 19.0595H139.146V7.83557C139.312 7.77321 139.551 7.71086 139.863 7.6485C140.195 7.58615 140.538 7.55497 140.892 7.55497C141.619 7.55497 142.149 7.69007 142.482 7.96028C142.814 8.2097 142.981 8.66697 142.981 9.33209V19.0595Z" fill="black"/>
<defs>
<linearGradient id="paint0_linear_204_1326" x1="-1.80219" y1="1.08409e-07" x2="14.6251" y2="39.4651" gradientUnits="userSpaceOnUse">
<stop stop-color="#145B98"/>
<stop offset="1" stop-color="#36CED2"/>
</linearGradient>
<linearGradient id="paint1_linear_204_1326" x1="15.9444" y1="-0.0283894" x2="29.7046" y2="30.7946" gradientUnits="userSpaceOnUse">
<stop stop-color="#FFA656"/>
<stop offset="1" stop-color="#EE614F"/>
</linearGradient>
<linearGradient id="paint2_linear_204_1326" x1="10.7047" y1="16.7321" x2="23.5914" y2="16.7321" gradientUnits="userSpaceOnUse">
<stop/>
<stop offset="0.679083" stop-opacity="0.606237"/>
<stop offset="1" stop-opacity="0.53"/>
</linearGradient>
</defs>
</svg>
